<?xml version="1.0" encoding="UTF-8" standalone="no"?>
<!-- Created with Inkscape (http://www.inkscape.org/) -->

<svg
   xmlns:dc="http://purl.org/dc/elements/1.1/"
   xmlns:cc="http://creativecommons.org/ns#"
   xmlns:rdf="http://www.w3.org/1999/02/22-rdf-syntax-ns#"
   xmlns:svg="http://www.w3.org/2000/svg"
   xmlns="http://www.w3.org/2000/svg"
   xmlns:sodipodi="http://sodipodi.sourceforge.net/DTD/sodipodi-0.dtd"
   xmlns:inkscape="http://www.inkscape.org/namespaces/inkscape"
   width="48mm"
   height="36mm"
   viewBox="0 0 48 36"
   version="1.1"
   id="svg8"
   inkscape:version="0.92.4 (5da689c313, 2019-01-14)"
   sodipodi:docname="3afterflarb.svg">
  <defs
     id="defs2" />
  <sodipodi:namedview
     id="base"
     pagecolor="#ffffff"
     bordercolor="#666666"
     borderopacity="1.0"
     inkscape:pageopacity="0.0"
     inkscape:pageshadow="2"
     inkscape:zoom="2.8284271"
     inkscape:cx="67.366079"
     inkscape:cy="51.624512"
     inkscape:document-units="mm"
     inkscape:current-layer="layer3"
     showgrid="false"
     borderlayer="true"
     inkscape:showpageshadow="false"
     inkscape:window-width="1366"
     inkscape:window-height="715"
     inkscape:window-x="-8"
     inkscape:window-y="-8"
     inkscape:window-maximized="1"
     inkscape:snap-object-midpoints="true"
     inkscape:snap-global="true"
     inkscape:snap-to-guides="false"
     inkscape:snap-grids="false"
     inkscape:snap-others="true"
     inkscape:object-nodes="false"
     inkscape:snap-nodes="true"
     inkscape:snap-intersection-paths="true" />
  <metadata
     id="metadata5">
    <rdf:RDF>
      <cc:Work
         rdf:about="">
        <dc:format>image/svg+xml</dc:format>
        <dc:type
           rdf:resource="http://purl.org/dc/dcmitype/StillImage" />
        <dc:title />
      </cc:Work>
    </rdf:RDF>
  </metadata>
  <g
     style="display:inline"
     transform="translate(0,-261)"
     id="g4564"
     inkscape:groupmode="layer"
     inkscape:label="Highlight">
    <path
       sodipodi:nodetypes="scscccscscs"
       inkscape:connector-curvature="0"
       id="path4545"
       d="m 26.621551,273.5226 c -2.333213,-0.38188 -3.733138,0.33944 -4.047242,-1.98412 -1.427571,0.38136 -2.078044,1.28844 -2.188796,2.87515 -0.16252,2.3284 -1.306956,3.3298 -3.198798,4.76233 -0.561749,5.56179 2.149906,7.06793 1.99383,9.80144 2.912105,1.2526 3.868932,-0.32001 8.145026,0.72132 -0.36067,-0.70946 -0.138809,-1.50815 0.18684,-2.08918 0.400637,-0.71482 0.806019,-1.31535 2.248368,-1.78208 1.442346,-0.46675 2.088053,-0.16801 2.570592,-2.83276 0.458874,-2.53405 0.01714,-4.50773 -0.678751,-7.67992 0,0 -2.697859,-1.4103 -5.031069,-1.79218 z"
       style="fill:#f01e19;fill-opacity:0.44221114;stroke:none;stroke-width:0.20999999;stroke-linecap:butt;stroke-linejoin:miter;stroke-miterlimit:4;stroke-dasharray:none;stroke-opacity:1" />
  </g>
  <g
     inkscape:label="Edges"
     inkscape:groupmode="layer"
     id="layer1"
     transform="translate(0,-261)"
     style="display:inline">
    <path
       style="fill:none;stroke:#7d7d7d;stroke-width:0.20999999;stroke-linecap:butt;stroke-linejoin:miter;stroke-miterlimit:4;stroke-dasharray:none;stroke-opacity:1"
       d="m 7.3991703,277.07049 c -0.2524318,-1.82628 0.9410722,-6.54774 1.5802341,-8.70891 2.2368366,-1.83114 2.7148506,-0.67286 4.2872436,-0.74204 1.866723,-0.0822 2.57925,-0.79473 3.114047,-1.72433 1.272415,3.54277 -0.470397,4.21165 -0.39911,6.34006 0.09089,2.71368 1.6621,2.41631 1.20513,6.94069 -0.561749,5.56179 2.149906,7.06793 1.99383,9.80144 2.912105,1.2526 3.868932,-0.32001 8.145026,0.72132"
       id="path4557"
       inkscape:connector-curvature="0"
       sodipodi:nodetypes="ccscsscc" />
    <path
       style="fill:none;stroke:#7d7d7d;stroke-width:0.20999999;stroke-linecap:butt;stroke-linejoin:miter;stroke-miterlimit:4;stroke-dasharray:none;stroke-opacity:1"
       d="m 16.380695,265.89521 c 2.944268,0.37176 4.216928,-1.70733 5.786543,-2.34379 1.569614,-0.63646 3.648293,1.06077 4.666422,1.35778 1.018129,0.29701 2.553441,-0.14949 3.037233,-1.00822 -1.085821,2.87517 -2.329825,2.60249 -3.831311,3.14784 -1.25145,0.45452 -1.413801,1.48984 -1.913198,2.82816 -0.39021,1.04572 -0.634944,1.4165 -1.552075,1.6615 -1.427571,0.38136 -2.078044,1.28844 -2.188796,2.87515 -0.16252,2.3284 -1.306956,3.3298 -3.198798,4.76233"
       id="path4559"
       inkscape:connector-curvature="0"
       sodipodi:nodetypes="csscssssc" />
    <path
       style="fill:none;stroke:#7d7d7d;stroke-width:0.20999999;stroke-linecap:butt;stroke-linejoin:miter;stroke-miterlimit:4;stroke-dasharray:none;stroke-opacity:1"
       d="m 22.574309,271.53848 c 0.314104,2.32356 1.714029,1.60224 4.047242,1.98412 2.33321,0.38188 5.031069,1.79218 5.031069,1.79218"
       id="path4561"
       inkscape:connector-curvature="0" />
    <path
       style="fill:none;stroke:#7d7d7d;stroke-width:0.20999999;stroke-linecap:butt;stroke-linejoin:miter;stroke-miterlimit:4;stroke-dasharray:none;stroke-opacity:1"
       d="m 33.434343,268.48349 c 1.035277,2.02654 2.385314,2.26942 3.453332,2.02654 1.040376,-0.23659 1.746242,-1.00719 1.951413,-2.29125 0.17419,-1.09018 0.678755,-1.99424 1.65446,-1.90938 0.975706,0.0849 1.604092,0.4032 2.231215,0.94361 1.202613,1.03632 1.761812,2.30324 1.714031,4.10563 -0.03065,1.15611 0.496254,1.66537 1.340353,2.59838 2.438014,2.69483 0.34239,6.52672 0.450754,9.14605 0.153441,3.70894 0.895691,4.531 -0.281068,7.57158 -0.665579,1.71977 -1.876703,1.64714 -2.941223,1.79029 -3.497271,0.47026 -6.690587,3.11109 -8.427879,1.73144 -2.844809,-2.25917 -6.088465,-2.20466 -7.25416,-4.49766 -0.36067,-0.70946 -0.138809,-1.50815 0.18684,-2.08918 0.400637,-0.71482 0.806019,-1.31535 2.248368,-1.78208 1.442346,-0.46675 2.088053,-0.16801 2.570592,-2.83276 0.458874,-2.53405 0.01714,-4.50773 -0.678751,-7.67992 1.085822,-2.11142 2.095828,-3.87127 1.781723,-6.83129 -0.483792,-1.77196 -1.255509,-3.06512 -3.56345,-4.58251"
       id="path4565"
       inkscape:connector-curvature="0"
       sodipodi:nodetypes="csssssssssssscsccc" />
    <path
       style="fill:none;stroke:#7d7d7d;stroke-width:0.20999999;stroke-linecap:butt;stroke-linejoin:miter;stroke-miterlimit:4;stroke-dasharray:none;stroke-opacity:1"
       d="m 32.331371,282.9947 c 2.223093,-2.30134 3.198799,-2.59835 4.641149,-2.59835 1.442349,0 2.341329,0.2324 3.461453,-0.37176 2.30794,-1.24061 1.629189,-2.00435 2.095831,-3.78644 0.466642,-1.78208 2.214065,-2.35587 3.249344,-2.28113"
       id="path4567"
       inkscape:connector-curvature="0" />
    <path
       style="fill:none;stroke:#7d7d7d;stroke-width:0.20999999;stroke-linecap:butt;stroke-linejoin:miter;stroke-miterlimit:4;stroke-dasharray:none;stroke-opacity:1"
       d="m 19.180545,288.9774 c -1.671611,-0.75366 -6.091618,-0.85869 -8.229866,-3.64901 -0.441371,-1.34765 0.01765,-1.51095 -1.6797322,-3.27725 -1.1689217,-1.2164 -1.0061874,-1.51147 -1.8717765,-4.98065 -0.345088,4.17367 -2.2899676,6.20475 -4.2117205,10.93103"
       id="path4575"
       inkscape:connector-curvature="0"
       sodipodi:nodetypes="ccscc" />
    <path
       style="fill:none;stroke:#7d7d7d;stroke-width:0.20999999;stroke-linecap:butt;stroke-linejoin:miter;stroke-miterlimit:4;stroke-dasharray:none;stroke-opacity:1"
       d="m 10.950679,285.32839 c -3.4190349,-0.01 -6.4228738,1.28303 -7.7632293,2.67313 -2.69072455,-3.87541 -0.6948493,-5.01513 -0.9381763,-7.76931 -0.3624451,-4.10246 -2.3491489,-6.06739 -0.3019917,-11.08186 1.4635914,-0.37058 2.0557288,-0.55446 2.6572435,-1.22858 1.0856055,-1.21664 2.3812401,-1.01984 4.3748792,0.43981"
       id="path4577"
       inkscape:connector-curvature="0"
       sodipodi:nodetypes="ccscsc" />
    <path
       style="fill:none;stroke:#7d7d7d;stroke-width:0.20999999;stroke-linecap:butt;stroke-linejoin:miter;stroke-miterlimit:4;stroke-dasharray:none;stroke-opacity:1"
       d="m 40.433973,280.02459 c 0.271997,2.66922 -0.767808,5.5496 -1.654459,7.25561 -2.523372,1.80833 -1.937834,4.9131 -4.19978,6.91618"
       id="path4585"
       inkscape:connector-curvature="0" />
    <path
       style="fill:none;stroke:#7d7d7d;stroke-width:0.20999999;stroke-linecap:butt;stroke-linejoin:miter;stroke-miterlimit:4;stroke-dasharray:none;stroke-opacity:1"
       d="m 38.779514,287.2802 c 1.920064,2.78033 3.802719,3.07154 5.609077,2.98496 0.541389,-0.0259 1.052644,0.0513 1.560242,0.40949"
       id="path4587"
       inkscape:connector-curvature="0"
       sodipodi:nodetypes="csc" />
  </g>
  <g
     inkscape:groupmode="layer"
     id="layer6"
     inkscape:label="Bezier Curve"
     style="display:inline">
    <path
       style="fill:#ffffff;fill-opacity:1;stroke:#7d7d7d;stroke-width:0.215;stroke-linecap:butt;stroke-linejoin:miter;stroke-miterlimit:4;stroke-dasharray:none;stroke-opacity:1"
       d="M 25.466145,2.0671875 C 22.40632,3.7618309 20.273698,6.598177 17.363281,8.4502603 14.452864,10.302344 8.2020832,12.716666 7.0114582,13.345052 5.8208333,13.973437 5.5149088,14.238021 5.0849609,14.998698 4.655013,15.759375 4.729427,16.520052 4.8617187,17.346875 c 0.1322917,0.826823 1.7069094,3.066681 2.8947702,4.729663 1.817684,2.544721 1.761726,4.035518 3.8388201,5.754472 2.503884,2.072155 5.334685,2.782927 7.766641,1.625744 3.241557,-1.542411 2.330371,-6.913932 5.186818,-8.618253 3.413352,-2.036604 6.794241,-1.261019 10.045502,-3.293189 1.593653,-0.996098 2.844271,-1.81901 3.571875,-3.836458 0.60736,-1.684043 0.496094,-3.671094 -0.198437,-5.6223958 C 37.518591,6.8246521 36.777083,4.9445312 33.80052,3.2578124 31.779558,2.1126004 27.472127,0.95620135 25.466145,2.0671875 Z"
       id="path4520"
       inkscape:connector-curvature="0"
       sodipodi:nodetypes="ssssssssssssss" />
  </g>
  <g
     inkscape:groupmode="layer"
     id="layer2"
     inkscape:label="Vertices"
     style="display:inline">
    <ellipse
       style="opacity:1;fill:#000000;fill-opacity:1;stroke:none;stroke-width:0.10000001;stroke-linecap:square;stroke-linejoin:round;stroke-miterlimit:4;stroke-dasharray:none;stroke-dashoffset:0;stroke-opacity:1"
       id="path4491"
       cx="1.9472817"
       cy="8.150363"
       rx="0.38274083"
       ry="0.38281775" />
    <ellipse
       cy="7.3615947"
       cx="8.9794044"
       id="circle4493"
       style="opacity:1;fill:#000000;fill-opacity:1;stroke:none;stroke-width:0.10000001;stroke-linecap:square;stroke-linejoin:round;stroke-miterlimit:4;stroke-dasharray:none;stroke-dashoffset:0;stroke-opacity:1"
       rx="0.38274083"
       ry="0.38281775" />
    <ellipse
       style="opacity:1;fill:#000000;fill-opacity:1;stroke:none;stroke-width:0.10000001;stroke-linecap:square;stroke-linejoin:round;stroke-miterlimit:4;stroke-dasharray:none;stroke-dashoffset:0;stroke-opacity:1"
       id="circle4503"
       cx="16.380695"
       cy="4.8952246"
       rx="0.38274083"
       ry="0.38281775" />
    <ellipse
       style="opacity:1;fill:#000000;fill-opacity:1;stroke:none;stroke-width:0.10000001;stroke-linecap:square;stroke-linejoin:round;stroke-miterlimit:4;stroke-dasharray:none;stroke-dashoffset:0;stroke-opacity:1"
       id="circle4507"
       cx="32.331371"
       cy="21.994715"
       rx="0.38274083"
       ry="0.38281775" />
    <ellipse
       cy="28.698732"
       cx="27.325573"
       id="circle4509"
       style="opacity:1;fill:#000000;fill-opacity:1;stroke:none;stroke-width:0.10000001;stroke-linecap:square;stroke-linejoin:round;stroke-miterlimit:4;stroke-dasharray:none;stroke-dashoffset:0;stroke-opacity:1"
       rx="0.38274083"
       ry="0.38281775" />
    <ellipse
       style="opacity:1;fill:#000000;fill-opacity:1;stroke:none;stroke-width:0.10000001;stroke-linecap:square;stroke-linejoin:round;stroke-miterlimit:4;stroke-dasharray:none;stroke-dashoffset:0;stroke-opacity:1"
       id="circle4513"
       cx="3.1874499"
       cy="27.001541"
       rx="0.38274083"
       ry="0.38281775" />
    <ellipse
       cy="6.2530179"
       cx="42.724766"
       id="circle4519"
       style="opacity:1;fill:#000000;fill-opacity:1;stroke:none;stroke-width:0.10000001;stroke-linecap:square;stroke-linejoin:round;stroke-miterlimit:4;stroke-dasharray:none;stroke-dashoffset:0;stroke-opacity:1"
       rx="0.38274083"
       ry="0.38281775" />
    <ellipse
       style="opacity:1;fill:#000000;fill-opacity:1;stroke:none;stroke-width:0.10000001;stroke-linecap:square;stroke-linejoin:round;stroke-miterlimit:4;stroke-dasharray:none;stroke-dashoffset:0;stroke-opacity:1"
       id="circle4521"
       cx="45.779148"
       cy="12.957035"
       rx="0.38274083"
       ry="0.38281775" />
    <ellipse
       cy="19.024614"
       cx="40.433975"
       id="circle4523"
       style="opacity:1;fill:#000000;fill-opacity:1;stroke:none;stroke-width:0.10000001;stroke-linecap:square;stroke-linejoin:round;stroke-miterlimit:4;stroke-dasharray:none;stroke-dashoffset:0;stroke-opacity:1"
       rx="0.38274083"
       ry="0.38281775" />
    <ellipse
       style="opacity:1;fill:#000000;fill-opacity:1;stroke:none;stroke-width:0.10000001;stroke-linecap:square;stroke-linejoin:round;stroke-miterlimit:4;stroke-dasharray:none;stroke-dashoffset:0;stroke-opacity:1"
       id="circle4525"
       cx="38.779514"
       cy="26.28022"
       rx="0.38274083"
       ry="0.38281775" />
    <ellipse
       cy="33.196392"
       cx="34.579735"
       id="circle4527"
       style="opacity:1;fill:#000000;fill-opacity:1;stroke:none;stroke-width:0.10000001;stroke-linecap:square;stroke-linejoin:round;stroke-miterlimit:4;stroke-dasharray:none;stroke-dashoffset:0;stroke-opacity:1"
       rx="0.38274083"
       ry="0.38281775" />
    <ellipse
       style="opacity:1;fill:#000000;fill-opacity:1;stroke:none;stroke-width:0.10000001;stroke-linecap:square;stroke-linejoin:round;stroke-miterlimit:4;stroke-dasharray:none;stroke-dashoffset:0;stroke-opacity:1"
       id="circle4531"
       cx="45.948833"
       cy="29.674669"
       rx="0.38274083"
       ry="0.38281775" />
    <ellipse
       ry="0.38281775"
       rx="0.38274083"
       cy="2.7392032"
       cx="24.377701"
       id="ellipse4537"
       style="opacity:1;fill:#000000;fill-opacity:1;stroke:none;stroke-width:0.10000001;stroke-linecap:square;stroke-linejoin:round;stroke-miterlimit:4;stroke-dasharray:none;stroke-dashoffset:0;stroke-opacity:1" />
    <ellipse
       style="opacity:1;fill:#000000;fill-opacity:1;stroke:none;stroke-width:0.10000001;stroke-linecap:square;stroke-linejoin:round;stroke-miterlimit:4;stroke-dasharray:none;stroke-dashoffset:0;stroke-opacity:1"
       id="ellipse4539"
       cx="16.510944"
       cy="8.9574842"
       rx="0.38274083"
       ry="0.38281775" />
    <ellipse
       ry="0.38281775"
       rx="0.38274083"
       cy="13.054588"
       cx="7.6244278"
       id="ellipse4541"
       style="opacity:1;fill:#000000;fill-opacity:1;stroke:none;stroke-width:0.10000001;stroke-linecap:square;stroke-linejoin:round;stroke-miterlimit:4;stroke-dasharray:none;stroke-dashoffset:0;stroke-opacity:1" />
    <ellipse
       style="opacity:1;fill:#000000;fill-opacity:1;stroke:none;stroke-width:0.10000001;stroke-linecap:square;stroke-linejoin:round;stroke-miterlimit:4;stroke-dasharray:none;stroke-dashoffset:0;stroke-opacity:1"
       id="ellipse4543"
       cx="6.4085937"
       cy="20.149111"
       rx="0.38274083"
       ry="0.38281775" />
    <ellipse
       ry="0.38281775"
       rx="0.38274083"
       cy="24.441435"
       cx="9.161108"
       id="ellipse4545"
       style="opacity:1;fill:#000000;fill-opacity:1;stroke:none;stroke-width:0.10000001;stroke-linecap:square;stroke-linejoin:round;stroke-miterlimit:4;stroke-dasharray:none;stroke-dashoffset:0;stroke-opacity:1" />
    <ellipse
       style="opacity:1;fill:#000000;fill-opacity:1;stroke:none;stroke-width:0.10000001;stroke-linecap:square;stroke-linejoin:round;stroke-miterlimit:4;stroke-dasharray:none;stroke-dashoffset:0;stroke-opacity:1"
       id="ellipse4547"
       cx="20.657072"
       cy="28.421473"
       rx="0.38274083"
       ry="0.38281775" />
    <ellipse
       ry="0.38281775"
       rx="0.38274083"
       cy="18.535406"
       cx="32.440811"
       id="ellipse4549"
       style="opacity:1;fill:#000000;fill-opacity:1;stroke:none;stroke-width:0.10000001;stroke-linecap:square;stroke-linejoin:round;stroke-miterlimit:4;stroke-dasharray:none;stroke-dashoffset:0;stroke-opacity:1" />
    <ellipse
       style="opacity:1;fill:#000000;fill-opacity:1;stroke:none;stroke-width:0.10000001;stroke-linecap:square;stroke-linejoin:round;stroke-miterlimit:4;stroke-dasharray:none;stroke-dashoffset:0;stroke-opacity:1"
       id="ellipse4551"
       cx="38.181416"
       cy="8.7516203"
       rx="0.38274083"
       ry="0.38281775" />
  </g>
  <g
     inkscape:groupmode="layer"
     id="layer3"
     inkscape:label="Text">
    <text
       xml:space="preserve"
       style="font-style:normal;font-weight:normal;font-size:3.83808637px;line-height:1.25;font-family:sans-serif;letter-spacing:0px;word-spacing:0px;fill:#000000;fill-opacity:1;stroke:none;stroke-width:0.26458332"
       x="25.50378"
       y="24.821629"
       id="text852"><tspan
         sodipodi:role="line"
         id="tspan850"
         x="25.50378"
         y="24.821629"
         style="font-style:italic;font-variant:normal;font-weight:normal;font-stretch:normal;font-family:'Times New Roman';-inkscape-font-specification:'Times New Roman,  Italic';stroke-width:0.26458332">f’</tspan></text>
  </g>
</svg>
