<?xml version="1.0" encoding="UTF-8" standalone="no"?>
<!-- Created with Inkscape (http://www.inkscape.org/) -->

<svg
   xmlns:dc="http://purl.org/dc/elements/1.1/"
   xmlns:cc="http://creativecommons.org/ns#"
   xmlns:rdf="http://www.w3.org/1999/02/22-rdf-syntax-ns#"
   xmlns:svg="http://www.w3.org/2000/svg"
   xmlns="http://www.w3.org/2000/svg"
   xmlns:sodipodi="http://sodipodi.sourceforge.net/DTD/sodipodi-0.dtd"
   xmlns:inkscape="http://www.inkscape.org/namespaces/inkscape"
   width="42mm"
   height="34.599998mm"
   viewBox="0 0 42 34.599998"
   version="1.1"
   id="svg8"
   inkscape:version="0.92.4 (5da689c313, 2019-01-14)"
   sodipodi:docname="alex_example_1.svg">
  <defs
     id="defs2">
    <marker
       inkscape:isstock="true"
       style="overflow:visible"
       id="marker3394"
       refX="0"
       refY="0"
       orient="auto"
       inkscape:stockid="Arrow1Mend">
      <path
         inkscape:connector-curvature="0"
         transform="matrix(-0.4,0,0,-0.4,-4,0)"
         style="fill:#b4b4b4;fill-opacity:1;fill-rule:evenodd;stroke:#b4b4b4;stroke-width:1.00000003pt;stroke-opacity:1"
         d="M 0,0 5,-5 -12.5,0 5,5 Z"
         id="path3392" />
    </marker>
    <marker
       inkscape:isstock="true"
       style="overflow:visible"
       id="marker3174"
       refX="0"
       refY="0"
       orient="auto"
       inkscape:stockid="Arrow1Mstart">
      <path
         inkscape:connector-curvature="0"
         transform="matrix(0.4,0,0,0.4,4,0)"
         style="fill:#b4b4b4;fill-opacity:1;fill-rule:evenodd;stroke:#b4b4b4;stroke-width:1.00000003pt;stroke-opacity:1"
         d="M 0,0 5,-5 -12.5,0 5,5 Z"
         id="path3172" />
    </marker>
    <marker
       inkscape:stockid="Arrow1Mstart"
       orient="auto"
       refY="0"
       refX="0"
       id="marker1442"
       style="overflow:visible"
       inkscape:isstock="true">
      <path
         inkscape:connector-curvature="0"
         id="path1440"
         d="M 0,0 5,-5 -12.5,0 5,5 Z"
         style="fill:#a5a5a5;fill-opacity:1;fill-rule:evenodd;stroke:#a5a5a5;stroke-width:1.00000003pt;stroke-opacity:1"
         transform="matrix(0.4,0,0,0.4,4,0)" />
    </marker>
    <marker
       inkscape:stockid="Arrow1Mend"
       orient="auto"
       refY="0"
       refX="0"
       id="marker11452"
       style="overflow:visible"
       inkscape:isstock="true">
      <path
         id="path11450"
         d="M 0,0 5,-5 -12.5,0 5,5 Z"
         style="fill:#b4b4b4;fill-opacity:1;fill-rule:evenodd;stroke:#b4b4b4;stroke-width:1.00000003pt;stroke-opacity:1"
         transform="matrix(-0.4,0,0,-0.4,-4,0)"
         inkscape:connector-curvature="0" />
    </marker>
    <marker
       inkscape:isstock="true"
       style="overflow:visible"
       id="marker11006"
       refX="0"
       refY="0"
       orient="auto"
       inkscape:stockid="Arrow1Mend">
      <path
         transform="matrix(-0.4,0,0,-0.4,-4,0)"
         style="fill:#b4b4b4;fill-opacity:1;fill-rule:evenodd;stroke:#b4b4b4;stroke-width:1.00000003pt;stroke-opacity:1"
         d="M 0,0 5,-5 -12.5,0 5,5 Z"
         id="path11004"
         inkscape:connector-curvature="0" />
    </marker>
    <marker
       inkscape:isstock="true"
       style="overflow:visible"
       id="marker10792"
       refX="0"
       refY="0"
       orient="auto"
       inkscape:stockid="Arrow1Mstart">
      <path
         transform="matrix(0.4,0,0,0.4,4,0)"
         style="fill:#b4b4b4;fill-opacity:1;fill-rule:evenodd;stroke:#b4b4b4;stroke-width:1.00000003pt;stroke-opacity:1"
         d="M 0,0 5,-5 -12.5,0 5,5 Z"
         id="path10790"
         inkscape:connector-curvature="0" />
    </marker>
    <marker
       inkscape:stockid="Arrow1Mend"
       orient="auto"
       refY="0"
       refX="0"
       id="marker10541"
       style="overflow:visible"
       inkscape:isstock="true">
      <path
         id="path10539"
         d="M 0,0 5,-5 -12.5,0 5,5 Z"
         style="fill:#b4b4b4;fill-opacity:1;fill-rule:evenodd;stroke:#b4b4b4;stroke-width:1.00000003pt;stroke-opacity:1"
         transform="matrix(-0.4,0,0,-0.4,-4,0)"
         inkscape:connector-curvature="0" />
    </marker>
    <marker
       inkscape:stockid="Arrow1Mstart"
       orient="auto"
       refY="0"
       refX="0"
       id="marker10339"
       style="overflow:visible"
       inkscape:isstock="true">
      <path
         id="path10337"
         d="M 0,0 5,-5 -12.5,0 5,5 Z"
         style="fill:#b4b4b4;fill-opacity:1;fill-rule:evenodd;stroke:#b4b4b4;stroke-width:1.00000003pt;stroke-opacity:1"
         transform="matrix(0.4,0,0,0.4,4,0)"
         inkscape:connector-curvature="0" />
    </marker>
    <marker
       inkscape:isstock="true"
       style="overflow:visible"
       id="marker10143"
       refX="0"
       refY="0"
       orient="auto"
       inkscape:stockid="Arrow1Mend">
      <path
         transform="matrix(-0.4,0,0,-0.4,-4,0)"
         style="fill:#b4b4b4;fill-opacity:1;fill-rule:evenodd;stroke:#b4b4b4;stroke-width:1.00000003pt;stroke-opacity:1"
         d="M 0,0 5,-5 -12.5,0 5,5 Z"
         id="path10141"
         inkscape:connector-curvature="0" />
    </marker>
    <marker
       inkscape:isstock="true"
       style="overflow:visible"
       id="marker9953"
       refX="0"
       refY="0"
       orient="auto"
       inkscape:stockid="Arrow1Mstart">
      <path
         transform="matrix(0.4,0,0,0.4,4,0)"
         style="fill:#b4b4b4;fill-opacity:1;fill-rule:evenodd;stroke:#b4b4b4;stroke-width:1.00000003pt;stroke-opacity:1"
         d="M 0,0 5,-5 -12.5,0 5,5 Z"
         id="path9951"
         inkscape:connector-curvature="0" />
    </marker>
    <marker
       inkscape:stockid="Arrow1Mend"
       orient="auto"
       refY="0"
       refX="0"
       id="marker9738"
       style="overflow:visible"
       inkscape:isstock="true">
      <path
         id="path9736"
         d="M 0,0 5,-5 -12.5,0 5,5 Z"
         style="fill:#b4b4b4;fill-opacity:1;fill-rule:evenodd;stroke:#b4b4b4;stroke-width:1.00000003pt;stroke-opacity:1"
         transform="matrix(-0.4,0,0,-0.4,-4,0)"
         inkscape:connector-curvature="0" />
    </marker>
    <marker
       inkscape:stockid="Arrow1Mstart"
       orient="auto"
       refY="0"
       refX="0"
       id="marker9560"
       style="overflow:visible"
       inkscape:isstock="true">
      <path
         id="path9558"
         d="M 0,0 5,-5 -12.5,0 5,5 Z"
         style="fill:#b4b4b4;fill-opacity:1;fill-rule:evenodd;stroke:#b4b4b4;stroke-width:1.00000003pt;stroke-opacity:1"
         transform="matrix(0.4,0,0,0.4,4,0)"
         inkscape:connector-curvature="0" />
    </marker>
    <marker
       inkscape:isstock="true"
       style="overflow:visible"
       id="marker9388"
       refX="0"
       refY="0"
       orient="auto"
       inkscape:stockid="Arrow1Mend">
      <path
         transform="matrix(-0.4,0,0,-0.4,-4,0)"
         style="fill:#b4b4b4;fill-opacity:1;fill-rule:evenodd;stroke:#b4b4b4;stroke-width:1.00000003pt;stroke-opacity:1"
         d="M 0,0 5,-5 -12.5,0 5,5 Z"
         id="path9386"
         inkscape:connector-curvature="0" />
    </marker>
    <marker
       inkscape:isstock="true"
       style="overflow:visible"
       id="marker9222"
       refX="0"
       refY="0"
       orient="auto"
       inkscape:stockid="Arrow1Mstart">
      <path
         transform="matrix(0.4,0,0,0.4,4,0)"
         style="fill:#b4b4b4;fill-opacity:1;fill-rule:evenodd;stroke:#b4b4b4;stroke-width:1.00000003pt;stroke-opacity:1"
         d="M 0,0 5,-5 -12.5,0 5,5 Z"
         id="path9220"
         inkscape:connector-curvature="0" />
    </marker>
    <marker
       inkscape:stockid="Arrow1Mend"
       orient="auto"
       refY="0"
       refX="0"
       id="marker6790"
       style="overflow:visible"
       inkscape:isstock="true">
      <path
         id="path6788"
         d="M 0,0 5,-5 -12.5,0 5,5 Z"
         style="fill:#b4b4b4;fill-opacity:1;fill-rule:evenodd;stroke:#b4b4b4;stroke-width:1.00000003pt;stroke-opacity:1"
         transform="matrix(-0.4,0,0,-0.4,-4,0)"
         inkscape:connector-curvature="0" />
    </marker>
    <marker
       inkscape:stockid="Arrow1Mend"
       orient="auto"
       refY="0"
       refX="0"
       id="marker6494"
       style="overflow:visible"
       inkscape:isstock="true">
      <path
         id="path6492"
         d="M 0,0 5,-5 -12.5,0 5,5 Z"
         style="fill:#b4b4b4;fill-opacity:1;fill-rule:evenodd;stroke:#b4b4b4;stroke-width:1.00000003pt;stroke-opacity:1"
         transform="matrix(-0.4,0,0,-0.4,-4,0)"
         inkscape:connector-curvature="0" />
    </marker>
    <marker
       inkscape:stockid="Arrow1Mstart"
       orient="auto"
       refY="0"
       refX="0"
       id="marker6376"
       style="overflow:visible"
       inkscape:isstock="true">
      <path
         id="path6374"
         d="M 0,0 5,-5 -12.5,0 5,5 Z"
         style="fill:#b4b4b4;fill-opacity:1;fill-rule:evenodd;stroke:#b4b4b4;stroke-width:1.00000003pt;stroke-opacity:1"
         transform="matrix(0.4,0,0,0.4,4,0)"
         inkscape:connector-curvature="0" />
    </marker>
    <marker
       inkscape:stockid="Arrow1Mstart"
       orient="auto"
       refY="0"
       refX="0"
       id="marker6126"
       style="overflow:visible"
       inkscape:isstock="true">
      <path
         id="path6124"
         d="M 0,0 5,-5 -12.5,0 5,5 Z"
         style="fill:#b4b4b4;fill-opacity:1;fill-rule:evenodd;stroke:#b4b4b4;stroke-width:1.00000003pt;stroke-opacity:1"
         transform="matrix(0.4,0,0,0.4,4,0)"
         inkscape:connector-curvature="0" />
    </marker>
    <marker
       inkscape:stockid="Arrow1Mend"
       orient="auto"
       refY="0"
       refX="0"
       id="marker5994"
       style="overflow:visible"
       inkscape:isstock="true">
      <path
         id="path5992"
         d="M 0,0 5,-5 -12.5,0 5,5 Z"
         style="fill:#b4b4b4;fill-opacity:1;fill-rule:evenodd;stroke:#b4b4b4;stroke-width:1.00000003pt;stroke-opacity:1"
         transform="matrix(-0.4,0,0,-0.4,-4,0)"
         inkscape:connector-curvature="0" />
    </marker>
    <marker
       inkscape:stockid="Arrow1Mstart"
       orient="auto"
       refY="0"
       refX="0"
       id="marker5900"
       style="overflow:visible"
       inkscape:isstock="true">
      <path
         id="path5898"
         d="M 0,0 5,-5 -12.5,0 5,5 Z"
         style="fill:#b4b4b4;fill-opacity:1;fill-rule:evenodd;stroke:#b4b4b4;stroke-width:1.00000003pt;stroke-opacity:1"
         transform="matrix(0.4,0,0,0.4,4,0)"
         inkscape:connector-curvature="0" />
    </marker>
    <marker
       inkscape:isstock="true"
       style="overflow:visible"
       id="marker5643"
       refX="0"
       refY="0"
       orient="auto"
       inkscape:stockid="Arrow1Mend">
      <path
         transform="matrix(-0.4,0,0,-0.4,-4,0)"
         style="fill:#a5a5a5;fill-opacity:1;fill-rule:evenodd;stroke:#a5a5a5;stroke-width:1.00000003pt;stroke-opacity:1"
         d="M 0,0 5,-5 -12.5,0 5,5 Z"
         id="path5641"
         inkscape:connector-curvature="0" />
    </marker>
    <marker
       inkscape:isstock="true"
       style="overflow:visible"
       id="marker5561"
       refX="0"
       refY="0"
       orient="auto"
       inkscape:stockid="Arrow1Mstart">
      <path
         transform="matrix(0.4,0,0,0.4,4,0)"
         style="fill:#a5a5a5;fill-opacity:1;fill-rule:evenodd;stroke:#a5a5a5;stroke-width:1.00000003pt;stroke-opacity:1"
         d="M 0,0 5,-5 -12.5,0 5,5 Z"
         id="path5559"
         inkscape:connector-curvature="0" />
    </marker>
    <marker
       inkscape:isstock="true"
       style="overflow:visible"
       id="marker5413"
       refX="0"
       refY="0"
       orient="auto"
       inkscape:stockid="Arrow1Mend">
      <path
         transform="matrix(-0.4,0,0,-0.4,-4,0)"
         style="fill:#b4b4b4;fill-opacity:1;fill-rule:evenodd;stroke:#b4b4b4;stroke-width:1.00000003pt;stroke-opacity:1"
         d="M 0,0 5,-5 -12.5,0 5,5 Z"
         id="path5411"
         inkscape:connector-curvature="0" />
    </marker>
    <marker
       inkscape:isstock="true"
       style="overflow:visible"
       id="marker5343"
       refX="0"
       refY="0"
       orient="auto"
       inkscape:stockid="Arrow1Mstart">
      <path
         transform="matrix(0.4,0,0,0.4,4,0)"
         style="fill:#b4b4b4;fill-opacity:1;fill-rule:evenodd;stroke:#b4b4b4;stroke-width:1.00000003pt;stroke-opacity:1"
         d="M 0,0 5,-5 -12.5,0 5,5 Z"
         id="path5341"
         inkscape:connector-curvature="0" />
    </marker>
    <marker
       inkscape:stockid="Arrow2Mstart"
       orient="auto"
       refY="0"
       refX="0"
       id="Arrow2Mstart"
       style="overflow:visible"
       inkscape:isstock="true">
      <path
         id="path4582"
         style="fill:#b4b4b4;fill-opacity:1;fill-rule:evenodd;stroke:#b4b4b4;stroke-width:0.625;stroke-linejoin:round;stroke-opacity:1"
         d="M 8.7185878,4.0337352 -2.2072895,0.01601326 8.7185884,-4.0017078 c -1.7454984,2.3720609 -1.7354408,5.6174519 -6e-7,8.035443 z"
         transform="scale(0.6)"
         inkscape:connector-curvature="0" />
    </marker>
    <marker
       inkscape:stockid="Arrow1Sstart"
       orient="auto"
       refY="0"
       refX="0"
       id="Arrow1Sstart"
       style="overflow:visible"
       inkscape:isstock="true">
      <path
         id="path4570"
         d="M 0,0 5,-5 -12.5,0 5,5 Z"
         style="fill:#b4b4b4;fill-opacity:1;fill-rule:evenodd;stroke:#b4b4b4;stroke-width:1.00000003pt;stroke-opacity:1"
         transform="matrix(0.2,0,0,0.2,1.2,0)"
         inkscape:connector-curvature="0" />
    </marker>
    <marker
       inkscape:stockid="Arrow1Mstart"
       orient="auto"
       refY="0"
       refX="0"
       id="Arrow1Mstart"
       style="overflow:visible"
       inkscape:isstock="true">
      <path
         id="path4564"
         d="M 0,0 5,-5 -12.5,0 5,5 Z"
         style="fill:#b4b4b4;fill-opacity:1;fill-rule:evenodd;stroke:#b4b4b4;stroke-width:1.00000003pt;stroke-opacity:1"
         transform="matrix(0.4,0,0,0.4,4,0)"
         inkscape:connector-curvature="0" />
    </marker>
  </defs>
  <sodipodi:namedview
     id="base"
     pagecolor="#ffffff"
     bordercolor="#666666"
     borderopacity="1.0"
     inkscape:pageopacity="0.0"
     inkscape:pageshadow="2"
     inkscape:zoom="3.959798"
     inkscape:cx="80.700115"
     inkscape:cy="63.154963"
     inkscape:document-units="mm"
     inkscape:current-layer="layer1"
     showgrid="false"
     borderlayer="true"
     inkscape:showpageshadow="false"
     inkscape:window-width="1366"
     inkscape:window-height="715"
     inkscape:window-x="-8"
     inkscape:window-y="-8"
     inkscape:window-maximized="1"
     inkscape:lockguides="false" />
  <metadata
     id="metadata5">
    <rdf:RDF>
      <cc:Work
         rdf:about="">
        <dc:format>image/svg+xml</dc:format>
        <dc:type
           rdf:resource="http://purl.org/dc/dcmitype/StillImage" />
        <dc:title />
      </cc:Work>
    </rdf:RDF>
  </metadata>
  <g
     inkscape:label="Layer 1"
     inkscape:groupmode="layer"
     id="layer1"
     transform="translate(0,-262.4)">
    <g
       id="g2425">
      <path
         sodipodi:nodetypes="cc"
         inkscape:connector-curvature="0"
         id="path11786"
         d="m 37.824835,277.10697 c 1.703842,-0.13364 2.271791,-0.36749 3.19053,-1.63703"
         style="fill:none;stroke:#a5a5a5;stroke-width:0.23999999;stroke-linecap:butt;stroke-linejoin:miter;stroke-miterlimit:4;stroke-dasharray:none;stroke-opacity:1" />
      <path
         style="fill:none;stroke:#a5a5a5;stroke-width:0.23999999;stroke-linecap:butt;stroke-linejoin:miter;stroke-miterlimit:4;stroke-dasharray:none;stroke-opacity:1"
         d="m 37.824835,282.29302 c 1.703842,0.13364 2.271791,0.36749 3.19053,1.63703"
         id="path12152"
         inkscape:connector-curvature="0"
         sodipodi:nodetypes="cc" />
      <path
         inkscape:connector-curvature="0"
         id="path12562"
         d="m 37.825408,279.69999 h 3.141927"
         style="fill:none;stroke:#a5a5a5;stroke-width:0.23999999;stroke-linecap:butt;stroke-linejoin:miter;stroke-miterlimit:4;stroke-dasharray:none;stroke-opacity:1" />
      <path
         style="fill:none;stroke:#a5a5a5;stroke-width:0.23999999;stroke-linecap:butt;stroke-linejoin:miter;stroke-miterlimit:4;stroke-dasharray:none;stroke-opacity:1"
         d="m 4.1751657,277.10697 c -1.703842,-0.13364 -2.271791,-0.36749 -3.19053003,-1.63703"
         id="path13245"
         inkscape:connector-curvature="0"
         sodipodi:nodetypes="cc" />
      <path
         sodipodi:nodetypes="cc"
         inkscape:connector-curvature="0"
         id="path13247"
         d="m 4.1751657,282.29302 c -1.703842,0.13364 -2.271791,0.36749 -3.19053003,1.63703"
         style="fill:none;stroke:#a5a5a5;stroke-width:0.23999999;stroke-linecap:butt;stroke-linejoin:miter;stroke-miterlimit:4;stroke-dasharray:none;stroke-opacity:1" />
      <path
         style="fill:none;stroke:#a5a5a5;stroke-width:0.23999999;stroke-linecap:butt;stroke-linejoin:miter;stroke-miterlimit:4;stroke-dasharray:none;stroke-opacity:1"
         d="M 4.1745927,279.69999 H 1.0326657"
         id="path13249"
         inkscape:connector-curvature="0" />
    </g>
    <g
       id="g9147">
      <rect
         y="267.20718"
         x="16.835745"
         height="8.3285275"
         width="8.3285093"
         id="rect4485"
         style="opacity:1;fill:#a1f8ef;fill-opacity:0.54901961;stroke:#be1432;stroke-width:0.145;stroke-linecap:round;stroke-linejoin:round;stroke-miterlimit:4;stroke-dasharray:none;stroke-dashoffset:0;stroke-opacity:1" />
      <rect
         style="opacity:1;fill:#87f679;fill-opacity:0.54901961;stroke:#be1432;stroke-width:0.145;stroke-linecap:round;stroke-linejoin:round;stroke-miterlimit:4;stroke-dasharray:none;stroke-dashoffset:0;stroke-opacity:1"
         id="rect4487"
         width="8.3285093"
         height="8.3285284"
         x="12.671491"
         y="275.53574" />
      <rect
         y="275.53574"
         x="21"
         height="8.3285284"
         width="8.3285093"
         id="rect4489"
         style="opacity:1;fill:#f7fd56;fill-opacity:0.54901961;stroke:#be1432;stroke-width:0.145;stroke-linecap:round;stroke-linejoin:round;stroke-miterlimit:4;stroke-dasharray:none;stroke-dashoffset:0;stroke-opacity:1" />
      <rect
         style="opacity:1;fill:#c68ef5;fill-opacity:0.54901961;stroke:#be1432;stroke-width:0.145;stroke-linecap:round;stroke-linejoin:round;stroke-miterlimit:4;stroke-dasharray:none;stroke-dashoffset:0;stroke-opacity:1"
         id="rect4497"
         width="8.3285093"
         height="8.3285284"
         x="4.3429813"
         y="275.53574" />
      <rect
         y="275.53574"
         x="29.328508"
         height="8.3285284"
         width="8.3285093"
         id="rect4499"
         style="opacity:1;fill:#b9a88b;fill-opacity:0.54901961;stroke:#be1432;stroke-width:0.145;stroke-linecap:round;stroke-linejoin:round;stroke-miterlimit:4;stroke-dasharray:none;stroke-dashoffset:0;stroke-opacity:1" />
      <rect
         style="opacity:1;fill:#fa9c5e;fill-opacity:0.54901961;stroke:#be1432;stroke-width:0.145;stroke-linecap:round;stroke-linejoin:round;stroke-miterlimit:4;stroke-dasharray:none;stroke-dashoffset:0;stroke-opacity:1"
         id="rect4507"
         width="8.3285093"
         height="8.3285275"
         x="16.835745"
         y="283.86426" />
    </g>
    <g
       id="g9035">
      <path
         style="fill:none;stroke:#a5a5a5;stroke-width:0.23999999;stroke-linecap:butt;stroke-linejoin:miter;stroke-miterlimit:4;stroke-dasharray:none;stroke-opacity:1"
         d="m 25.37847,269.64248 c 2.099832,0.13009 3.073781,0.19521 4.190358,1.24504 1.116578,1.04983 1.393691,2.2485 1.588817,4.40407"
         id="path5826"
         inkscape:connector-curvature="0"
         sodipodi:nodetypes="czc" />
      <path
         sodipodi:nodetypes="czc"
         inkscape:connector-curvature="0"
         id="path5830"
         d="m 25.267968,272.99685 c 0.912673,0.0565 1.335989,0.0849 1.821303,0.54115 0.485305,0.45629 0.605747,0.97728 0.690557,1.91418"
         style="fill:none;stroke:#a5a5a5;stroke-width:0.23999999;stroke-linecap:butt;stroke-linejoin:miter;stroke-miterlimit:4;stroke-dasharray:none;stroke-opacity:1" />
      <path
         sodipodi:nodetypes="csc"
         inkscape:connector-curvature="0"
         id="path6656"
         d="m 24.007795,266.92674 c 0.576717,-2.8605 4.58188,-3.87336 7.105106,-1.06115 1.944152,2.16682 2.791294,6.68989 2.768226,9.41199"
         style="fill:none;stroke:#a5a5a5;stroke-width:0.23999999;stroke-linecap:butt;stroke-linejoin:miter;stroke-miterlimit:4;stroke-dasharray:none;stroke-opacity:1" />
      <path
         style="fill:none;stroke:#a5a5a5;stroke-width:0.23999999;stroke-linecap:butt;stroke-linejoin:miter;stroke-miterlimit:4;stroke-dasharray:none;stroke-opacity:1"
         d="m 22.36993,266.92674 c 0.137258,-4.01605 6.367762,-5.38665 9.38889,-2.9297 1.367056,1.11177 2.570578,2.86025 3.310272,5.09888 0.739693,2.23864 1.113431,4.86139 1.101897,6.22244"
         id="path7706"
         inkscape:connector-curvature="0"
         sodipodi:nodetypes="cssc" />
    </g>
    <g
       id="g9079"
       transform="matrix(-1,0,0,1,41.999999,0)">
      <path
         sodipodi:nodetypes="czc"
         inkscape:connector-curvature="0"
         id="path9071"
         d="m 25.37847,269.64248 c 2.099832,0.13009 3.073781,0.19521 4.190358,1.24504 1.116578,1.04983 1.393691,2.2485 1.588817,4.40407"
         style="fill:none;stroke:#a5a5a5;stroke-width:0.23999999;stroke-linecap:butt;stroke-linejoin:miter;stroke-miterlimit:4;stroke-dasharray:none;stroke-opacity:1" />
      <path
         style="fill:none;stroke:#a5a5a5;stroke-width:0.23999999;stroke-linecap:butt;stroke-linejoin:miter;stroke-miterlimit:4;stroke-dasharray:none;stroke-opacity:1"
         d="m 25.267968,272.99685 c 0.912673,0.0565 1.335989,0.0849 1.821303,0.54115 0.485305,0.45629 0.605747,0.97728 0.690557,1.91418"
         id="path9073"
         inkscape:connector-curvature="0"
         sodipodi:nodetypes="czc" />
      <path
         style="fill:none;stroke:#a5a5a5;stroke-width:0.23999999;stroke-linecap:butt;stroke-linejoin:miter;stroke-miterlimit:4;stroke-dasharray:none;stroke-opacity:1"
         d="m 24.007795,266.92674 c 0.576717,-2.8605 4.58188,-3.87336 7.105106,-1.06115 1.944152,2.16682 2.791294,6.68989 2.768226,9.41199"
         id="path9075"
         inkscape:connector-curvature="0"
         sodipodi:nodetypes="csc" />
      <path
         sodipodi:nodetypes="cssc"
         inkscape:connector-curvature="0"
         id="path9077"
         d="m 22.36993,266.92674 c 0.137258,-4.01605 6.367762,-5.38665 9.38889,-2.9297 1.367056,1.11177 2.570578,2.86025 3.310272,5.09888 0.739693,2.23864 1.113431,4.86139 1.101897,6.22244"
         style="fill:none;stroke:#a5a5a5;stroke-width:0.23999999;stroke-linecap:butt;stroke-linejoin:miter;stroke-miterlimit:4;stroke-dasharray:none;stroke-opacity:1" />
    </g>
    <g
       id="g9105"
       transform="matrix(1,0,0,-1,0,559.39997)">
      <path
         sodipodi:nodetypes="czc"
         inkscape:connector-curvature="0"
         id="path9097"
         d="m 25.37847,269.64248 c 2.099832,0.13009 3.073781,0.19521 4.190358,1.24504 1.116578,1.04983 1.393691,2.2485 1.588817,4.40407"
         style="fill:none;stroke:#a5a5a5;stroke-width:0.23999999;stroke-linecap:butt;stroke-linejoin:miter;stroke-miterlimit:4;stroke-dasharray:none;stroke-opacity:1" />
      <path
         style="fill:none;stroke:#a5a5a5;stroke-width:0.23999999;stroke-linecap:butt;stroke-linejoin:miter;stroke-miterlimit:4;stroke-dasharray:none;stroke-opacity:1"
         d="m 25.267968,272.99685 c 0.912673,0.0565 1.335989,0.0849 1.821303,0.54115 0.485305,0.45629 0.605747,0.97728 0.690557,1.91418"
         id="path9099"
         inkscape:connector-curvature="0"
         sodipodi:nodetypes="czc" />
      <path
         style="fill:none;stroke:#a5a5a5;stroke-width:0.23999999;stroke-linecap:butt;stroke-linejoin:miter;stroke-miterlimit:4;stroke-dasharray:none;stroke-opacity:1"
         d="m 24.007795,266.92674 c 0.576717,-2.8605 4.58188,-3.87336 7.105106,-1.06115 1.944152,2.16682 2.791294,6.68989 2.768226,9.41199"
         id="path9101"
         inkscape:connector-curvature="0"
         sodipodi:nodetypes="csc" />
      <path
         sodipodi:nodetypes="cssc"
         inkscape:connector-curvature="0"
         id="path9103"
         d="m 22.36993,266.92674 c 0.137258,-4.01605 6.367762,-5.38665 9.38889,-2.9297 1.367056,1.11177 2.570578,2.86025 3.310272,5.09888 0.739693,2.23864 1.113431,4.86139 1.101897,6.22244"
         style="fill:none;stroke:#a5a5a5;stroke-width:0.23999999;stroke-linecap:butt;stroke-linejoin:miter;stroke-miterlimit:4;stroke-dasharray:none;stroke-opacity:1" />
    </g>
    <g
       id="g9125"
       transform="rotate(-180,21,279.69998)">
      <path
         style="fill:none;stroke:#a5a5a5;stroke-width:0.23999999;stroke-linecap:butt;stroke-linejoin:miter;stroke-miterlimit:4;stroke-dasharray:none;stroke-opacity:1"
         d="m 25.37847,269.64248 c 2.099832,0.13009 3.073781,0.19521 4.190358,1.24504 1.116578,1.04983 1.393691,2.2485 1.588817,4.40407"
         id="path9117"
         inkscape:connector-curvature="0"
         sodipodi:nodetypes="czc" />
      <path
         sodipodi:nodetypes="czc"
         inkscape:connector-curvature="0"
         id="path9119"
         d="m 25.267968,272.99685 c 0.912673,0.0565 1.335989,0.0849 1.821303,0.54115 0.485305,0.45629 0.605747,0.97728 0.690557,1.91418"
         style="fill:none;stroke:#a5a5a5;stroke-width:0.23999999;stroke-linecap:butt;stroke-linejoin:miter;stroke-miterlimit:4;stroke-dasharray:none;stroke-opacity:1" />
      <path
         sodipodi:nodetypes="csc"
         inkscape:connector-curvature="0"
         id="path9121"
         d="m 24.007795,266.92674 c 0.576717,-2.8605 4.58188,-3.87336 7.105106,-1.06115 1.944152,2.16682 2.791294,6.68989 2.768226,9.41199"
         style="fill:none;stroke:#a5a5a5;stroke-width:0.23999999;stroke-linecap:butt;stroke-linejoin:miter;stroke-miterlimit:4;stroke-dasharray:none;stroke-opacity:1" />
      <path
         style="fill:none;stroke:#a5a5a5;stroke-width:0.23999999;stroke-linecap:butt;stroke-linejoin:miter;stroke-miterlimit:4;stroke-dasharray:none;stroke-opacity:1"
         d="m 22.36993,266.92674 c 0.137258,-4.01605 6.367762,-5.38665 9.38889,-2.9297 1.367056,1.11177 2.570578,2.86025 3.310272,5.09888 0.739693,2.23864 1.113431,4.86139 1.101897,6.22244"
         id="path9123"
         inkscape:connector-curvature="0"
         sodipodi:nodetypes="cssc" />
    </g>
  </g>
</svg>
