<?xml version="1.0" encoding="UTF-8" standalone="no"?>
<!-- Created with Inkscape (http://www.inkscape.org/) -->

<svg
   xmlns:dc="http://purl.org/dc/elements/1.1/"
   xmlns:cc="http://creativecommons.org/ns#"
   xmlns:rdf="http://www.w3.org/1999/02/22-rdf-syntax-ns#"
   xmlns:svg="http://www.w3.org/2000/svg"
   xmlns="http://www.w3.org/2000/svg"
   xmlns:sodipodi="http://sodipodi.sourceforge.net/DTD/sodipodi-0.dtd"
   xmlns:inkscape="http://www.inkscape.org/namespaces/inkscape"
   width="83mm"
   height="43mm"
   viewBox="0 0 83 43"
   version="1.1"
   id="svg8"
   inkscape:version="0.92.1 r15371"
   sodipodi:docname="alex_example_stefan_1.svg">
  <defs
     id="defs2" />
  <sodipodi:namedview
     id="base"
     pagecolor="#ffffff"
     bordercolor="#666666"
     borderopacity="1.0"
     inkscape:pageopacity="0.0"
     inkscape:pageshadow="2"
     inkscape:zoom="2.8"
     inkscape:cx="204.10315"
     inkscape:cy="60.745557"
     inkscape:document-units="mm"
     inkscape:current-layer="layer1"
     showgrid="false"
     inkscape:window-width="1920"
     inkscape:window-height="1027"
     inkscape:window-x="-8"
     inkscape:window-y="-8"
     inkscape:window-maximized="1"
     borderlayer="true"
     inkscape:showpageshadow="false"
     units="mm" />
  <metadata
     id="metadata5">
    <rdf:RDF>
      <cc:Work
         rdf:about="">
        <dc:format>image/svg+xml</dc:format>
        <dc:type
           rdf:resource="http://purl.org/dc/dcmitype/StillImage" />
        <dc:title></dc:title>
      </cc:Work>
    </rdf:RDF>
  </metadata>
  <g
     inkscape:label="Layer 1"
     inkscape:groupmode="layer"
     id="layer1"
     transform="translate(0,-254.00002)">
    <g
       id="g4670"
       transform="translate(6.500069,-11.5)">
      <g
         id="g4620">
        <path
           sodipodi:nodetypes="cssc"
           inkscape:connector-curvature="0"
           id="path4612"
           d="m 65,289.50002 c 10.066255,3.93808 13.849897,-11.19477 8.157041,-17.78406 -6.713385,-7.77051 -20.4147,-5.55943 -28.557599,-4.87007 C 35.928257,267.57997 19.935616,270.75581 15,279.50002"
           style="fill:none;stroke:#a5a5a5;stroke-width:0.31;stroke-linecap:butt;stroke-linejoin:miter;stroke-miterlimit:4;stroke-dasharray:none;stroke-opacity:1" />
        <path
           style="fill:none;stroke:#a5a5a5;stroke-width:0.31;stroke-linecap:butt;stroke-linejoin:miter;stroke-miterlimit:4;stroke-dasharray:none;stroke-opacity:1"
           d="m 69.999999,287.00003 c 3.478992,-5.31647 1.802644,-14.47581 -6.424421,-16.88009 -8.352823,-2.44104 -19.441629,2.74637 -23.575436,6.88018"
           id="path4610"
           inkscape:connector-curvature="0"
           sodipodi:nodetypes="csc" />
        <path
           sodipodi:nodetypes="csc"
           inkscape:connector-curvature="0"
           id="path4607-5"
           d="m 67.5,284.50002 c 2.409914,-2.40991 1.327355,-8.06458 -4.99964,-10.15577 C 55.471231,272.021 49.133807,277.86621 45,282.00002"
           style="fill:none;stroke:#a5a5a5;stroke-width:0.31;stroke-linecap:butt;stroke-linejoin:miter;stroke-miterlimit:4;stroke-dasharray:none;stroke-opacity:1" />
        <path
           sodipodi:nodetypes="cc"
           inkscape:connector-curvature="0"
           id="path4598"
           d="m 65.000166,281.99981 c -3.76573,-4.09882 -6.219827,-4.11498 -10.000422,0"
           style="fill:none;stroke:#a5a5a5;stroke-width:0.31;stroke-linecap:butt;stroke-linejoin:miter;stroke-miterlimit:4;stroke-dasharray:0.30999999, 0.61999998;stroke-dashoffset:0;stroke-opacity:1" />
        <path
           style="fill:none;stroke:#a5a5a5;stroke-width:0.31;stroke-linecap:butt;stroke-linejoin:miter;stroke-miterlimit:4;stroke-dasharray:none;stroke-opacity:1"
           d="m 62.50035,284.50002 c -1.833596,-1.8336 -3.159166,-1.84083 -5,0"
           id="path4596"
           inkscape:connector-curvature="0"
           sodipodi:nodetypes="cc" />
        <path
           sodipodi:nodetypes="cc"
           inkscape:connector-curvature="0"
           id="path4607-3"
           d="m 52.5,284.50002 c -1.833596,-1.8336 -3.159166,-1.84083 -5,0"
           style="fill:none;stroke:#a5a5a5;stroke-width:0.31;stroke-linecap:butt;stroke-linejoin:miter;stroke-miterlimit:4;stroke-dasharray:none;stroke-opacity:1" />
      </g>
      <path
         style="fill:none;stroke:#a5a5a5;stroke-width:0.31;stroke-linecap:butt;stroke-linejoin:miter;stroke-miterlimit:4;stroke-dasharray:none;stroke-opacity:1"
         d="m 35.000048,291.99994 c 0.685996,2.85756 1.701082,4.15502 4.839058,4.15502 3.137976,0 4.276426,-1.13235 5.160942,-4.15502"
         id="path4573"
         inkscape:connector-curvature="0"
         sodipodi:nodetypes="czc" />
      <path
         style="fill:none;stroke:#a5a5a5;stroke-width:0.31;stroke-linecap:butt;stroke-linejoin:miter;stroke-miterlimit:4;stroke-dasharray:0.30999999, 0.61999998;stroke-dashoffset:0;stroke-opacity:1"
         d="m 50.000048,296.99993 c -3.183813,1.79449 -4.319948,3.98075 -10.381096,3.98075 -6.061148,0 -5.686474,-1.16362 -9.618903,-3.98075"
         id="path4575"
         inkscape:connector-curvature="0"
         sodipodi:nodetypes="czc" />
      <path
         sodipodi:nodetypes="czc"
         inkscape:connector-curvature="0"
         id="path4607"
         d="m 35,282.00002 c -0.685996,-2.85756 -1.701082,-4.15502 -4.839058,-4.15502 -3.137976,0 -4.276426,1.13235 -5.160942,4.15502"
         style="fill:none;stroke:#a5a5a5;stroke-width:0.31;stroke-linecap:butt;stroke-linejoin:miter;stroke-miterlimit:4;stroke-dasharray:none;stroke-opacity:1" />
      <path
         sodipodi:nodetypes="czc"
         inkscape:connector-curvature="0"
         id="path4531"
         d="m 20,277.00003 c 3.183813,-1.79449 4.319948,-3.98075 10.381096,-3.98075 6.061148,0 5.686474,1.16362 9.618903,3.98075"
         style="fill:none;stroke:#a5a5a5;stroke-width:0.31;stroke-linecap:butt;stroke-linejoin:miter;stroke-miterlimit:4;stroke-dasharray:0.30999999, 0.61999998;stroke-dashoffset:0;stroke-opacity:1" />
      <g
         transform="rotate(-180,34.999931,287.00002)"
         id="g4634">
        <path
           style="fill:none;stroke:#a5a5a5;stroke-width:0.31;stroke-linecap:butt;stroke-linejoin:miter;stroke-miterlimit:4;stroke-dasharray:none;stroke-opacity:1"
           d="m 65,289.50002 c 10.066255,3.93808 13.849897,-11.19477 8.157041,-17.78406 -6.713385,-7.77051 -20.4147,-5.55943 -28.557599,-4.87007 C 35.928257,267.57997 19.935616,270.75581 15,279.50002"
           id="path4622"
           inkscape:connector-curvature="0"
           sodipodi:nodetypes="cssc" />
        <path
           sodipodi:nodetypes="csc"
           inkscape:connector-curvature="0"
           id="path4624"
           d="m 69.999999,287.00003 c 3.478992,-5.31647 1.802644,-14.47581 -6.424421,-16.88009 -8.352823,-2.44104 -19.441629,2.74637 -23.575436,6.88018"
           style="fill:none;stroke:#a5a5a5;stroke-width:0.31;stroke-linecap:butt;stroke-linejoin:miter;stroke-miterlimit:4;stroke-dasharray:none;stroke-opacity:1" />
        <path
           style="fill:none;stroke:#a5a5a5;stroke-width:0.31;stroke-linecap:butt;stroke-linejoin:miter;stroke-miterlimit:4;stroke-dasharray:none;stroke-opacity:1"
           d="m 67.5,284.50002 c 2.409914,-2.40991 1.327355,-8.06458 -4.99964,-10.15577 C 55.471231,272.021 49.133807,277.86621 45,282.00002"
           id="path4626"
           inkscape:connector-curvature="0"
           sodipodi:nodetypes="csc" />
        <path
           style="fill:none;stroke:#a5a5a5;stroke-width:0.31;stroke-linecap:butt;stroke-linejoin:miter;stroke-miterlimit:4;stroke-dasharray:0.30999999, 0.61999998;stroke-dashoffset:0;stroke-opacity:1"
           d="m 65.000166,281.99981 c -3.76573,-4.09882 -6.219827,-4.11498 -10.000422,0"
           id="path4628"
           inkscape:connector-curvature="0"
           sodipodi:nodetypes="cc" />
        <path
           sodipodi:nodetypes="cc"
           inkscape:connector-curvature="0"
           id="path4630"
           d="m 62.50035,284.50002 c -1.833596,-1.8336 -3.159166,-1.84083 -5,0"
           style="fill:none;stroke:#a5a5a5;stroke-width:0.31;stroke-linecap:butt;stroke-linejoin:miter;stroke-miterlimit:4;stroke-dasharray:none;stroke-opacity:1" />
        <path
           style="fill:none;stroke:#a5a5a5;stroke-width:0.31;stroke-linecap:butt;stroke-linejoin:miter;stroke-miterlimit:4;stroke-dasharray:none;stroke-opacity:1"
           d="m 52.5,284.50002 c -1.833596,-1.8336 -3.159166,-1.84083 -5,0"
           id="path4632"
           inkscape:connector-curvature="0"
           sodipodi:nodetypes="cc" />
      </g>
      <g
         id="g4567">
        <path
           style="opacity:1;fill:#fa9c5e;fill-opacity:0.54901961;stroke:none;stroke-width:1.43622029;stroke-linecap:square;stroke-linejoin:round;stroke-miterlimit:4;stroke-dasharray:1.4362204, 2.87244076;stroke-dashoffset:0;stroke-opacity:1"
           d="m 0,415.74805 18.898438,18.89843 18.896484,-18.89843 z"
           transform="matrix(0.26458333,0,0,0.26458333,0,177.00002)"
           id="rect4482"
           inkscape:connector-curvature="0" />
        <path
           style="opacity:1;fill:#fa9c5e;fill-opacity:0.54901961;stroke:none;stroke-width:1.43622029;stroke-linecap:square;stroke-linejoin:round;stroke-miterlimit:4;stroke-dasharray:1.4362204, 2.87244076;stroke-dashoffset:0;stroke-opacity:1"
           d="m 37.794922,415.74805 18.898437,18.89843 18.896485,-18.89843 z"
           transform="matrix(0.26458333,0,0,0.26458333,0,177.00002)"
           id="rect4484"
           inkscape:connector-curvature="0" />
        <path
           style="opacity:1;fill:#fa9c5e;fill-opacity:0.54901961;stroke:none;stroke-width:1.43622029;stroke-linecap:square;stroke-linejoin:round;stroke-miterlimit:4;stroke-dasharray:1.4362204, 2.87244076;stroke-dashoffset:0;stroke-opacity:1"
           d="m 75.589844,415.74805 37.796876,37.79492 v -37.79492 z"
           transform="matrix(0.26458333,0,0,0.26458333,0,177.00002)"
           id="rect4486"
           inkscape:connector-curvature="0" />
        <path
           style="opacity:1;fill:#c68ef5;fill-opacity:0.54901961;stroke:none;stroke-width:1.43622029;stroke-linecap:square;stroke-linejoin:round;stroke-miterlimit:4;stroke-dasharray:1.4362204, 2.87244076;stroke-dashoffset:0;stroke-opacity:1"
           d="m 113.38672,415.74805 v 37.79492 l 37.79492,-37.79492 z"
           transform="matrix(0.26458333,0,0,0.26458333,0,177.00002)"
           id="rect4488"
           inkscape:connector-curvature="0" />
        <path
           style="opacity:1;fill:#c68ef5;fill-opacity:0.54901961;stroke:none;stroke-width:1.43622029;stroke-linecap:square;stroke-linejoin:round;stroke-miterlimit:4;stroke-dasharray:1.4362204, 2.87244076;stroke-dashoffset:0;stroke-opacity:1"
           d="m 151.18164,415.74805 37.79492,37.79492 v -37.79492 z"
           transform="matrix(0.26458333,0,0,0.26458333,0,177.00002)"
           id="rect4490"
           inkscape:connector-curvature="0" />
        <path
           style="opacity:1;fill:#87f679;fill-opacity:0.54901961;stroke:none;stroke-width:1.43622029;stroke-linecap:square;stroke-linejoin:round;stroke-miterlimit:4;stroke-dasharray:1.4362204, 2.87244076;stroke-dashoffset:0;stroke-opacity:1"
           d="m 188.97656,415.74805 v 37.79492 l 37.79492,-18.89844 v -18.89648 z"
           transform="matrix(0.26458333,0,0,0.26458333,0,177.00002)"
           id="rect4492"
           inkscape:connector-curvature="0" />
        <path
           style="opacity:1;fill:#f7fd56;fill-opacity:0.54901961;stroke:none;stroke-width:1.43622029;stroke-linecap:square;stroke-linejoin:round;stroke-miterlimit:4;stroke-dasharray:1.4362204, 2.87244076;stroke-dashoffset:0;stroke-opacity:1"
           d="m 226.77148,415.74805 v 18.89648 l 37.79493,-18.89648 z"
           transform="matrix(0.26458333,0,0,0.26458333,0,177.00002)"
           id="rect4494"
           inkscape:connector-curvature="0" />
        <path
           style="opacity:1;fill:#87f679;fill-opacity:0.54901961;stroke:none;stroke-width:1.43622029;stroke-linecap:square;stroke-linejoin:round;stroke-miterlimit:4;stroke-dasharray:1.4362204, 2.87244076;stroke-dashoffset:0;stroke-opacity:1"
           d="M 37.794922,396.85156 0,415.74805 h 37.794922 z"
           transform="matrix(0.26458333,0,0,0.26458333,0,177.00002)"
           id="rect4505"
           inkscape:connector-curvature="0" />
        <path
           style="opacity:1;fill:#f7fd56;fill-opacity:0.54901961;stroke:none;stroke-width:1.43622029;stroke-linecap:square;stroke-linejoin:round;stroke-miterlimit:4;stroke-dasharray:1.4362204, 2.87244076;stroke-dashoffset:0;stroke-opacity:1"
           d="m 75.589844,377.95312 -37.794922,18.89844 v 18.89649 h 37.794922 z"
           transform="matrix(0.26458333,0,0,0.26458333,0,177.00002)"
           id="rect4507"
           inkscape:connector-curvature="0" />
        <path
           style="opacity:1;fill:#b9a88b;fill-opacity:0.54901961;stroke:none;stroke-width:1.43622029;stroke-linecap:square;stroke-linejoin:round;stroke-miterlimit:4;stroke-dasharray:1.4362204, 2.87244076;stroke-dashoffset:0;stroke-opacity:1"
           d="m 75.589844,377.95312 v 37.79493 h 37.796876 z"
           transform="matrix(0.26458333,0,0,0.26458333,0,177.00002)"
           id="rect4509"
           inkscape:connector-curvature="0" />
        <path
           style="opacity:1;fill:#b9a88b;fill-opacity:0.54901961;stroke:none;stroke-width:1.43622029;stroke-linecap:square;stroke-linejoin:round;stroke-miterlimit:4;stroke-dasharray:1.4362204, 2.87244076;stroke-dashoffset:0;stroke-opacity:1"
           d="m 151.18164,377.95312 -37.79492,37.79493 h 37.79492 z"
           transform="matrix(0.26458333,0,0,0.26458333,0,177.00002)"
           id="rect4511"
           inkscape:connector-curvature="0" />
        <path
           style="opacity:1;fill:#a1f8ef;fill-opacity:0.54901961;stroke:none;stroke-width:1.43622029;stroke-linecap:square;stroke-linejoin:round;stroke-miterlimit:4;stroke-dasharray:1.4362204, 2.87244076;stroke-dashoffset:0;stroke-opacity:1"
           d="m 151.18164,377.95312 v 37.79493 h 37.79492 z"
           transform="matrix(0.26458333,0,0,0.26458333,0,177.00002)"
           id="rect4513"
           inkscape:connector-curvature="0" />
        <path
           style="opacity:1;fill:#a1f8ef;fill-opacity:0.54901961;stroke:none;stroke-width:1.43622029;stroke-linecap:square;stroke-linejoin:round;stroke-miterlimit:4;stroke-dasharray:1.4362204, 2.87244076;stroke-dashoffset:0;stroke-opacity:1"
           d="m 207.87305,396.84961 -18.89649,18.89844 h 37.79492 z"
           transform="matrix(0.26458333,0,0,0.26458333,0,177.00002)"
           id="rect4515"
           inkscape:connector-curvature="0" />
        <path
           style="opacity:1;fill:#a1f8ef;fill-opacity:0.54901961;stroke:none;stroke-width:1.43622029;stroke-linecap:square;stroke-linejoin:round;stroke-miterlimit:4;stroke-dasharray:1.4362204, 2.87244076;stroke-dashoffset:0;stroke-opacity:1"
           d="m 245.66992,396.84961 -18.89844,18.89844 h 37.79493 z"
           transform="matrix(0.26458333,0,0,0.26458333,0,177.00002)"
           id="rect4517"
           inkscape:connector-curvature="0" />
        <path
           style="fill:none;stroke:#be1432;stroke-width:0.23;stroke-linecap:butt;stroke-linejoin:miter;stroke-miterlimit:4;stroke-dasharray:none;stroke-opacity:1"
           d="m 0,287.00003 20,-10 10,10 9.999999,-10 10.000001,10 5,-5.00001 4.999998,5.00001 L 65,282.00002 l 4.999999,5.00001 -19.999999,10 -10.000001,-10 -9.999999,10 -10,-10 -5,4.99999 -5,-4.99999 -5,4.99999 z"
           id="path4496"
           inkscape:connector-curvature="0"
           sodipodi:nodetypes="ccccccccccccccccc" />
      </g>
    </g>
  </g>
</svg>
